<mxfile host="app.diagrams.net" modified="2023-07-25T20:24:31.688Z" agent="Mozilla/5.0 (Windows NT 10.0; Win64; x64) AppleWebKit/537.36 (KHTML, like Gecko) Chrome/114.0.0.0 Safari/537.36" etag="vq7Sp_2NJmoL3nFad2Gh" version="21.6.5" type="device">
  <diagram id="C5RBs43oDa-KdzZeNtuy" name="Page-1">
    <mxGraphModel dx="1434" dy="764" grid="1" gridSize="10" guides="1" tooltips="1" connect="1" arrows="1" fold="1" page="1" pageScale="1" pageWidth="827" pageHeight="1169" math="0" shadow="0">
      <root>
        <mxCell id="WIyWlLk6GJQsqaUBKTNV-0" />
        <mxCell id="WIyWlLk6GJQsqaUBKTNV-1" parent="WIyWlLk6GJQsqaUBKTNV-0" />
        <mxCell id="DFwUwxRd9LHp8LGhNbKz-0" value="&lt;div style=&quot;font-family: Consolas, &amp;quot;Courier New&amp;quot;, monospace; font-weight: normal; font-size: 14px; line-height: 19px;&quot;&gt;&lt;span style=&quot;background-color: rgb(255, 255, 255);&quot;&gt;class Field&lt;/span&gt;&lt;/div&gt;" style="swimlane;fontStyle=1;align=center;verticalAlign=top;childLayout=stackLayout;horizontal=1;startSize=26;horizontalStack=0;resizeParent=1;resizeParentMax=0;resizeLast=0;collapsible=1;marginBottom=0;whiteSpace=wrap;html=1;" vertex="1" parent="WIyWlLk6GJQsqaUBKTNV-1">
          <mxGeometry x="370" y="80" width="160" height="60" as="geometry" />
        </mxCell>
        <mxCell id="DFwUwxRd9LHp8LGhNbKz-1" value="+ field: type" style="text;strokeColor=none;fillColor=none;align=left;verticalAlign=top;spacingLeft=4;spacingRight=4;overflow=hidden;rotatable=0;points=[[0,0.5],[1,0.5]];portConstraint=eastwest;whiteSpace=wrap;html=1;" vertex="1" parent="DFwUwxRd9LHp8LGhNbKz-0">
          <mxGeometry y="26" width="160" height="26" as="geometry" />
        </mxCell>
        <mxCell id="DFwUwxRd9LHp8LGhNbKz-2" value="" style="line;strokeWidth=1;fillColor=none;align=left;verticalAlign=middle;spacingTop=-1;spacingLeft=3;spacingRight=3;rotatable=0;labelPosition=right;points=[];portConstraint=eastwest;strokeColor=inherit;" vertex="1" parent="DFwUwxRd9LHp8LGhNbKz-0">
          <mxGeometry y="52" width="160" height="8" as="geometry" />
        </mxCell>
        <mxCell id="DFwUwxRd9LHp8LGhNbKz-4" value="&lt;div style=&quot;font-family: Consolas, &amp;quot;Courier New&amp;quot;, monospace; font-weight: normal; font-size: 14px; line-height: 19px;&quot;&gt;Birthday&lt;/div&gt;" style="swimlane;fontStyle=1;align=center;verticalAlign=top;childLayout=stackLayout;horizontal=1;startSize=26;horizontalStack=0;resizeParent=1;resizeParentMax=0;resizeLast=0;collapsible=1;marginBottom=0;whiteSpace=wrap;html=1;labelBackgroundColor=#FFFFFF;fontColor=#000000;" vertex="1" parent="WIyWlLk6GJQsqaUBKTNV-1">
          <mxGeometry x="320" y="150" width="160" height="60" as="geometry" />
        </mxCell>
        <mxCell id="DFwUwxRd9LHp8LGhNbKz-5" value="+ field: birthday" style="text;strokeColor=none;fillColor=none;align=left;verticalAlign=top;spacingLeft=4;spacingRight=4;overflow=hidden;rotatable=0;points=[[0,0.5],[1,0.5]];portConstraint=eastwest;whiteSpace=wrap;html=1;" vertex="1" parent="DFwUwxRd9LHp8LGhNbKz-4">
          <mxGeometry y="26" width="160" height="26" as="geometry" />
        </mxCell>
        <mxCell id="DFwUwxRd9LHp8LGhNbKz-6" value="" style="line;strokeWidth=1;fillColor=none;align=left;verticalAlign=middle;spacingTop=-1;spacingLeft=3;spacingRight=3;rotatable=0;labelPosition=right;points=[];portConstraint=eastwest;strokeColor=inherit;" vertex="1" parent="DFwUwxRd9LHp8LGhNbKz-4">
          <mxGeometry y="52" width="160" height="8" as="geometry" />
        </mxCell>
        <mxCell id="DFwUwxRd9LHp8LGhNbKz-8" value="Email" style="swimlane;fontStyle=1;align=center;verticalAlign=top;childLayout=stackLayout;horizontal=1;startSize=26;horizontalStack=0;resizeParent=1;resizeParentMax=0;resizeLast=0;collapsible=1;marginBottom=0;whiteSpace=wrap;html=1;" vertex="1" parent="WIyWlLk6GJQsqaUBKTNV-1">
          <mxGeometry x="660" y="150" width="160" height="60" as="geometry" />
        </mxCell>
        <mxCell id="DFwUwxRd9LHp8LGhNbKz-9" value="+ field: email" style="text;strokeColor=none;fillColor=none;align=left;verticalAlign=top;spacingLeft=4;spacingRight=4;overflow=hidden;rotatable=0;points=[[0,0.5],[1,0.5]];portConstraint=eastwest;whiteSpace=wrap;html=1;" vertex="1" parent="DFwUwxRd9LHp8LGhNbKz-8">
          <mxGeometry y="26" width="160" height="26" as="geometry" />
        </mxCell>
        <mxCell id="DFwUwxRd9LHp8LGhNbKz-10" value="" style="line;strokeWidth=1;fillColor=none;align=left;verticalAlign=middle;spacingTop=-1;spacingLeft=3;spacingRight=3;rotatable=0;labelPosition=right;points=[];portConstraint=eastwest;strokeColor=inherit;" vertex="1" parent="DFwUwxRd9LHp8LGhNbKz-8">
          <mxGeometry y="52" width="160" height="8" as="geometry" />
        </mxCell>
        <mxCell id="DFwUwxRd9LHp8LGhNbKz-12" value="Phone" style="swimlane;fontStyle=1;align=center;verticalAlign=top;childLayout=stackLayout;horizontal=1;startSize=26;horizontalStack=0;resizeParent=1;resizeParentMax=0;resizeLast=0;collapsible=1;marginBottom=0;whiteSpace=wrap;html=1;" vertex="1" parent="WIyWlLk6GJQsqaUBKTNV-1">
          <mxGeometry x="490" y="150" width="160" height="60" as="geometry" />
        </mxCell>
        <mxCell id="DFwUwxRd9LHp8LGhNbKz-13" value="+ field: phone" style="text;strokeColor=none;fillColor=none;align=left;verticalAlign=top;spacingLeft=4;spacingRight=4;overflow=hidden;rotatable=0;points=[[0,0.5],[1,0.5]];portConstraint=eastwest;whiteSpace=wrap;html=1;" vertex="1" parent="DFwUwxRd9LHp8LGhNbKz-12">
          <mxGeometry y="26" width="160" height="26" as="geometry" />
        </mxCell>
        <mxCell id="DFwUwxRd9LHp8LGhNbKz-14" value="" style="line;strokeWidth=1;fillColor=none;align=left;verticalAlign=middle;spacingTop=-1;spacingLeft=3;spacingRight=3;rotatable=0;labelPosition=right;points=[];portConstraint=eastwest;strokeColor=inherit;" vertex="1" parent="DFwUwxRd9LHp8LGhNbKz-12">
          <mxGeometry y="52" width="160" height="8" as="geometry" />
        </mxCell>
        <mxCell id="DFwUwxRd9LHp8LGhNbKz-16" value="Name" style="swimlane;fontStyle=1;align=center;verticalAlign=top;childLayout=stackLayout;horizontal=1;startSize=26;horizontalStack=0;resizeParent=1;resizeParentMax=0;resizeLast=0;collapsible=1;marginBottom=0;whiteSpace=wrap;html=1;" vertex="1" parent="WIyWlLk6GJQsqaUBKTNV-1">
          <mxGeometry x="160" y="100" width="160" height="60" as="geometry" />
        </mxCell>
        <mxCell id="DFwUwxRd9LHp8LGhNbKz-17" value="+ field: name" style="text;strokeColor=none;fillColor=none;align=left;verticalAlign=top;spacingLeft=4;spacingRight=4;overflow=hidden;rotatable=0;points=[[0,0.5],[1,0.5]];portConstraint=eastwest;whiteSpace=wrap;html=1;" vertex="1" parent="DFwUwxRd9LHp8LGhNbKz-16">
          <mxGeometry y="26" width="160" height="26" as="geometry" />
        </mxCell>
        <mxCell id="DFwUwxRd9LHp8LGhNbKz-18" value="" style="line;strokeWidth=1;fillColor=none;align=left;verticalAlign=middle;spacingTop=-1;spacingLeft=3;spacingRight=3;rotatable=0;labelPosition=right;points=[];portConstraint=eastwest;strokeColor=inherit;" vertex="1" parent="DFwUwxRd9LHp8LGhNbKz-16">
          <mxGeometry y="52" width="160" height="8" as="geometry" />
        </mxCell>
        <mxCell id="DFwUwxRd9LHp8LGhNbKz-20" value="Contact" style="swimlane;fontStyle=1;align=center;verticalAlign=top;childLayout=stackLayout;horizontal=1;startSize=26;horizontalStack=0;resizeParent=1;resizeParentMax=0;resizeLast=0;collapsible=1;marginBottom=0;whiteSpace=wrap;html=1;" vertex="1" parent="WIyWlLk6GJQsqaUBKTNV-1">
          <mxGeometry x="600" y="360" width="160" height="144" as="geometry" />
        </mxCell>
        <mxCell id="DFwUwxRd9LHp8LGhNbKz-21" value="&amp;nbsp;field: name&lt;br&gt;field: phone&lt;br&gt;filde: address&lt;br&gt;field: birthday&lt;br&gt;field: email" style="text;strokeColor=none;fillColor=none;align=left;verticalAlign=top;spacingLeft=4;spacingRight=4;overflow=hidden;rotatable=0;points=[[0,0.5],[1,0.5]];portConstraint=eastwest;whiteSpace=wrap;html=1;" vertex="1" parent="DFwUwxRd9LHp8LGhNbKz-20">
          <mxGeometry y="26" width="160" height="84" as="geometry" />
        </mxCell>
        <mxCell id="DFwUwxRd9LHp8LGhNbKz-22" value="" style="line;strokeWidth=1;fillColor=none;align=left;verticalAlign=middle;spacingTop=-1;spacingLeft=3;spacingRight=3;rotatable=0;labelPosition=right;points=[];portConstraint=eastwest;strokeColor=inherit;" vertex="1" parent="DFwUwxRd9LHp8LGhNbKz-20">
          <mxGeometry y="110" width="160" height="8" as="geometry" />
        </mxCell>
        <mxCell id="DFwUwxRd9LHp8LGhNbKz-23" value="&lt;div style=&quot;font-family: Consolas, &amp;quot;Courier New&amp;quot;, monospace; font-size: 14px; line-height: 19px;&quot;&gt;to_dict()&amp;nbsp;&lt;/div&gt;" style="text;strokeColor=none;fillColor=none;align=left;verticalAlign=top;spacingLeft=4;spacingRight=4;overflow=hidden;rotatable=0;points=[[0,0.5],[1,0.5]];portConstraint=eastwest;whiteSpace=wrap;html=1;labelBackgroundColor=#FFFFFF;fontColor=#000000;" vertex="1" parent="DFwUwxRd9LHp8LGhNbKz-20">
          <mxGeometry y="118" width="160" height="26" as="geometry" />
        </mxCell>
        <mxCell id="DFwUwxRd9LHp8LGhNbKz-29" value="" style="endArrow=none;html=1;rounded=0;" edge="1" parent="WIyWlLk6GJQsqaUBKTNV-1">
          <mxGeometry relative="1" as="geometry">
            <mxPoint x="370" y="270" as="sourcePoint" />
            <mxPoint x="530" y="270" as="targetPoint" />
          </mxGeometry>
        </mxCell>
        <mxCell id="DFwUwxRd9LHp8LGhNbKz-31" value="" style="endArrow=none;html=1;rounded=0;" edge="1" parent="WIyWlLk6GJQsqaUBKTNV-1">
          <mxGeometry relative="1" as="geometry">
            <mxPoint x="220" y="270" as="sourcePoint" />
            <mxPoint x="380" y="270" as="targetPoint" />
          </mxGeometry>
        </mxCell>
        <mxCell id="DFwUwxRd9LHp8LGhNbKz-33" value="" style="endArrow=none;html=1;rounded=0;" edge="1" parent="WIyWlLk6GJQsqaUBKTNV-1">
          <mxGeometry relative="1" as="geometry">
            <mxPoint x="530" y="270" as="sourcePoint" />
            <mxPoint x="690" y="270" as="targetPoint" />
            <Array as="points">
              <mxPoint x="610" y="270" />
            </Array>
          </mxGeometry>
        </mxCell>
        <mxCell id="DFwUwxRd9LHp8LGhNbKz-35" value="" style="endArrow=none;html=1;rounded=0;entryX=-0.06;entryY=0.845;entryDx=0;entryDy=0;entryPerimeter=0;" edge="1" parent="WIyWlLk6GJQsqaUBKTNV-1">
          <mxGeometry relative="1" as="geometry">
            <mxPoint x="680" y="270" as="sourcePoint" />
            <mxPoint x="680.0999999999999" y="362" as="targetPoint" />
          </mxGeometry>
        </mxCell>
        <mxCell id="DFwUwxRd9LHp8LGhNbKz-38" value="Extends" style="endArrow=block;endSize=16;endFill=0;html=1;rounded=0;entryX=0.369;entryY=0.875;entryDx=0;entryDy=0;entryPerimeter=0;" edge="1" parent="WIyWlLk6GJQsqaUBKTNV-1" target="DFwUwxRd9LHp8LGhNbKz-18">
          <mxGeometry x="0.375" y="20" width="160" relative="1" as="geometry">
            <mxPoint x="220" y="270" as="sourcePoint" />
            <mxPoint x="220" y="210" as="targetPoint" />
            <Array as="points">
              <mxPoint x="220" y="270" />
            </Array>
            <mxPoint as="offset" />
          </mxGeometry>
        </mxCell>
        <mxCell id="DFwUwxRd9LHp8LGhNbKz-39" value="Extends" style="endArrow=block;endSize=16;endFill=0;html=1;rounded=0;" edge="1" parent="WIyWlLk6GJQsqaUBKTNV-1">
          <mxGeometry x="0.375" y="20" width="160" relative="1" as="geometry">
            <mxPoint x="399.5" y="270" as="sourcePoint" />
            <mxPoint x="399.5" y="210" as="targetPoint" />
            <Array as="points">
              <mxPoint x="399.5" y="270" />
            </Array>
            <mxPoint as="offset" />
          </mxGeometry>
        </mxCell>
        <mxCell id="DFwUwxRd9LHp8LGhNbKz-40" value="Extends" style="endArrow=block;endSize=16;endFill=0;html=1;rounded=0;" edge="1" parent="WIyWlLk6GJQsqaUBKTNV-1">
          <mxGeometry width="160" relative="1" as="geometry">
            <mxPoint x="569.5" y="270" as="sourcePoint" />
            <mxPoint x="569.5" y="210" as="targetPoint" />
            <Array as="points">
              <mxPoint x="569.5" y="270" />
            </Array>
            <mxPoint x="1" as="offset" />
          </mxGeometry>
        </mxCell>
        <mxCell id="DFwUwxRd9LHp8LGhNbKz-41" value="Extends" style="endArrow=block;endSize=16;endFill=0;html=1;rounded=0;" edge="1" parent="WIyWlLk6GJQsqaUBKTNV-1">
          <mxGeometry width="160" relative="1" as="geometry">
            <mxPoint x="690" y="270" as="sourcePoint" />
            <mxPoint x="690" y="210" as="targetPoint" />
            <Array as="points">
              <mxPoint x="690" y="270" />
            </Array>
            <mxPoint as="offset" />
          </mxGeometry>
        </mxCell>
        <mxCell id="DFwUwxRd9LHp8LGhNbKz-42" value="AdressBook" style="swimlane;fontStyle=1;align=center;verticalAlign=top;childLayout=stackLayout;horizontal=1;startSize=26;horizontalStack=0;resizeParent=1;resizeParentMax=0;resizeLast=0;collapsible=1;marginBottom=0;whiteSpace=wrap;html=1;" vertex="1" parent="WIyWlLk6GJQsqaUBKTNV-1">
          <mxGeometry x="70" y="300" width="410" height="320" as="geometry" />
        </mxCell>
        <mxCell id="DFwUwxRd9LHp8LGhNbKz-43" value="&lt;div style=&quot;font-size: 14px; line-height: 19px;&quot;&gt;&lt;span style=&quot;background-color: rgb(255, 255, 255);&quot;&gt;field : contacts&lt;/span&gt;&lt;/div&gt;" style="text;strokeColor=none;fillColor=none;align=left;verticalAlign=top;spacingLeft=4;spacingRight=4;overflow=hidden;rotatable=0;points=[[0,0.5],[1,0.5]];portConstraint=eastwest;whiteSpace=wrap;html=1;" vertex="1" parent="DFwUwxRd9LHp8LGhNbKz-42">
          <mxGeometry y="26" width="410" height="24" as="geometry" />
        </mxCell>
        <mxCell id="DFwUwxRd9LHp8LGhNbKz-44" value="" style="line;strokeWidth=1;fillColor=none;align=left;verticalAlign=middle;spacingTop=-1;spacingLeft=3;spacingRight=3;rotatable=0;labelPosition=right;points=[];portConstraint=eastwest;strokeColor=inherit;" vertex="1" parent="DFwUwxRd9LHp8LGhNbKz-42">
          <mxGeometry y="50" width="410" height="8" as="geometry" />
        </mxCell>
        <mxCell id="DFwUwxRd9LHp8LGhNbKz-45" value="&lt;div style=&quot;font-family: Consolas, &amp;quot;Courier New&amp;quot;, monospace; font-size: 14px; line-height: 19px;&quot;&gt;&lt;span style=&quot;background-color: rgb(255, 255, 255);&quot;&gt;search_contacts(self, search_term)&lt;/span&gt;&lt;/div&gt;&lt;div style=&quot;font-family: Consolas, &amp;quot;Courier New&amp;quot;, monospace; line-height: 19px;&quot;&gt;&lt;div style=&quot;line-height: 19px;&quot;&gt;&lt;span style=&quot;background-color: rgb(255, 255, 255);&quot;&gt;edit_contact(self, old_name, new_name, new_email, new_phone, new_favorite)&lt;br&gt;&lt;/span&gt;&lt;/div&gt;&lt;div style=&quot;line-height: 19px;&quot;&gt;&lt;div style=&quot;line-height: 19px;&quot;&gt;&lt;span style=&quot;background-color: rgb(255, 255, 255);&quot;&gt;get_upcoming_birthdays(self, days)&lt;/span&gt;&lt;/div&gt;&lt;div style=&quot;line-height: 19px;&quot;&gt;&lt;div style=&quot;line-height: 19px;&quot;&gt;&lt;span style=&quot;background-color: rgb(255, 255, 255);&quot;&gt;&amp;nbsp;delete_contact(self, name)&lt;/span&gt;&lt;/div&gt;&lt;div style=&quot;line-height: 19px;&quot;&gt;&lt;div style=&quot;line-height: 19px;&quot;&gt;&lt;span style=&quot;background-color: rgb(255, 255, 255);&quot;&gt;&amp;nbsp;handle_add(self, name, address, phone, email, birthday)&lt;/span&gt;&lt;/div&gt;&lt;div style=&quot;line-height: 19px;&quot;&gt;&lt;div style=&quot;line-height: 19px;&quot;&gt;&lt;span style=&quot;background-color: rgb(255, 255, 255);&quot;&gt;&amp;nbsp;handle_change(self, name, address, phone, email, birthday)&lt;/span&gt;&lt;/div&gt;&lt;div style=&quot;line-height: 19px;&quot;&gt;&lt;div style=&quot;line-height: 19px;&quot;&gt;&lt;span style=&quot;background-color: rgb(255, 255, 255);&quot;&gt;handle_delete(self, name)&lt;/span&gt;&lt;/div&gt;&lt;div style=&quot;line-height: 19px;&quot;&gt;&lt;div style=&quot;line-height: 19px;&quot;&gt;&lt;span style=&quot;background-color: rgb(255, 255, 255);&quot;&gt;handle_search(self, search_term)&lt;/span&gt;&lt;/div&gt;&lt;div style=&quot;line-height: 19px;&quot;&gt;&lt;div style=&quot;line-height: 19px;&quot;&gt;&lt;span style=&quot;background-color: rgb(255, 255, 255);&quot;&gt;save_contacts(self, filename)&lt;/span&gt;&lt;/div&gt;&lt;div style=&quot;line-height: 19px;&quot;&gt;&lt;div style=&quot;line-height: 19px;&quot;&gt;&lt;span style=&quot;background-color: rgb(255, 255, 255);&quot;&gt;load_contacts(self, filename)&lt;/span&gt;&lt;/div&gt;&lt;div style=&quot;line-height: 19px;&quot;&gt;&lt;div style=&quot;line-height: 19px;&quot;&gt;&lt;span style=&quot;background-color: rgb(255, 255, 255);&quot;&gt;save_contacts2(self, filename)&lt;/span&gt;&lt;/div&gt;&lt;div style=&quot;line-height: 19px;&quot;&gt;&lt;div style=&quot;line-height: 19px;&quot;&gt;&lt;span style=&quot;background-color: rgb(255, 255, 255);&quot;&gt;&amp;nbsp;load_contacts2(self, filename)&lt;/span&gt;&lt;/div&gt;&lt;/div&gt;&lt;/div&gt;&lt;/div&gt;&lt;/div&gt;&lt;/div&gt;&lt;/div&gt;&lt;/div&gt;&lt;/div&gt;&lt;/div&gt;&lt;/div&gt;&lt;/div&gt;" style="text;strokeColor=none;fillColor=none;align=left;verticalAlign=top;spacingLeft=4;spacingRight=4;overflow=hidden;rotatable=0;points=[[0,0.5],[1,0.5]];portConstraint=eastwest;whiteSpace=wrap;html=1;" vertex="1" parent="DFwUwxRd9LHp8LGhNbKz-42">
          <mxGeometry y="58" width="410" height="262" as="geometry" />
        </mxCell>
        <mxCell id="DFwUwxRd9LHp8LGhNbKz-46" value="Extends" style="endArrow=block;endSize=16;endFill=0;html=1;rounded=0;entryX=0.013;entryY=0.833;entryDx=0;entryDy=0;entryPerimeter=0;" edge="1" parent="WIyWlLk6GJQsqaUBKTNV-1" target="DFwUwxRd9LHp8LGhNbKz-21">
          <mxGeometry x="0.04" y="-4" width="160" relative="1" as="geometry">
            <mxPoint x="480" y="440" as="sourcePoint" />
            <mxPoint x="480" y="384" as="targetPoint" />
            <mxPoint as="offset" />
          </mxGeometry>
        </mxCell>
        <mxCell id="DFwUwxRd9LHp8LGhNbKz-47" value="Note" style="swimlane;fontStyle=1;align=center;verticalAlign=top;childLayout=stackLayout;horizontal=1;startSize=26;horizontalStack=0;resizeParent=1;resizeParentMax=0;resizeLast=0;collapsible=1;marginBottom=0;whiteSpace=wrap;html=1;" vertex="1" parent="WIyWlLk6GJQsqaUBKTNV-1">
          <mxGeometry x="20" y="640" width="200" height="220" as="geometry" />
        </mxCell>
        <mxCell id="DFwUwxRd9LHp8LGhNbKz-48" value="field: name&lt;br&gt;field: content&lt;br&gt;field: tags&lt;br&gt;field: timestamp" style="text;strokeColor=none;fillColor=none;align=left;verticalAlign=top;spacingLeft=4;spacingRight=4;overflow=hidden;rotatable=0;points=[[0,0.5],[1,0.5]];portConstraint=eastwest;whiteSpace=wrap;html=1;" vertex="1" parent="DFwUwxRd9LHp8LGhNbKz-47">
          <mxGeometry y="26" width="200" height="64" as="geometry" />
        </mxCell>
        <mxCell id="DFwUwxRd9LHp8LGhNbKz-49" value="" style="line;strokeWidth=1;fillColor=none;align=left;verticalAlign=middle;spacingTop=-1;spacingLeft=3;spacingRight=3;rotatable=0;labelPosition=right;points=[];portConstraint=eastwest;strokeColor=inherit;" vertex="1" parent="DFwUwxRd9LHp8LGhNbKz-47">
          <mxGeometry y="90" width="200" height="8" as="geometry" />
        </mxCell>
        <mxCell id="DFwUwxRd9LHp8LGhNbKz-50" value="&lt;div style=&quot;font-size: 11px; line-height: 19px;&quot;&gt;set_name(self, new_name)&lt;/div&gt;&lt;div style=&quot;font-size: 11px; line-height: 19px;&quot;&gt;&lt;div style=&quot;line-height: 19px; font-size: 11px;&quot;&gt;&lt;div style=&quot;line-height: 19px; font-size: 11px;&quot;&gt;search_by_tag(self, tag)&lt;/div&gt;&lt;/div&gt;&lt;div style=&quot;line-height: 19px; font-size: 11px;&quot;&gt;&lt;div style=&quot;line-height: 19px; font-size: 11px;&quot;&gt;remove_tag(self, tag)&lt;/div&gt;&lt;/div&gt;&lt;div style=&quot;line-height: 19px; font-size: 11px;&quot;&gt;&lt;div style=&quot;line-height: 19px; font-size: 11px;&quot;&gt;to_dict(self)&lt;/div&gt;&lt;/div&gt;&lt;div style=&quot;line-height: 19px; font-size: 11px;&quot;&gt;add_tag(self, tag)&lt;br style=&quot;font-size: 11px;&quot;&gt;&lt;/div&gt;&lt;div style=&quot;line-height: 19px; font-size: 11px;&quot;&gt;&lt;div style=&quot;line-height: 19px; font-size: 11px;&quot;&gt;&lt;br style=&quot;font-size: 11px;&quot;&gt;&lt;/div&gt;&lt;/div&gt;&lt;/div&gt;" style="text;strokeColor=none;fillColor=none;align=left;verticalAlign=top;spacingLeft=4;spacingRight=4;overflow=hidden;rotatable=0;points=[[0,0.5],[1,0.5]];portConstraint=eastwest;whiteSpace=wrap;html=1;fontSize=11;fontFamily=Helvetica;labelBackgroundColor=#FFFFFF;fontColor=#000000;" vertex="1" parent="DFwUwxRd9LHp8LGhNbKz-47">
          <mxGeometry y="98" width="200" height="122" as="geometry" />
        </mxCell>
        <mxCell id="DFwUwxRd9LHp8LGhNbKz-51" value="Notebooke" style="swimlane;fontStyle=1;align=center;verticalAlign=top;childLayout=stackLayout;horizontal=1;startSize=26;horizontalStack=0;resizeParent=1;resizeParentMax=0;resizeLast=0;collapsible=1;marginBottom=0;whiteSpace=wrap;html=1;" vertex="1" parent="WIyWlLk6GJQsqaUBKTNV-1">
          <mxGeometry x="320" y="690" width="440" height="240" as="geometry" />
        </mxCell>
        <mxCell id="DFwUwxRd9LHp8LGhNbKz-52" value="0" style="text;strokeColor=none;fillColor=none;align=left;verticalAlign=top;spacingLeft=4;spacingRight=4;overflow=hidden;rotatable=0;points=[[0,0.5],[1,0.5]];portConstraint=eastwest;whiteSpace=wrap;html=1;" vertex="1" parent="DFwUwxRd9LHp8LGhNbKz-51">
          <mxGeometry y="26" width="440" height="26" as="geometry" />
        </mxCell>
        <mxCell id="DFwUwxRd9LHp8LGhNbKz-53" value="" style="line;strokeWidth=1;fillColor=none;align=left;verticalAlign=middle;spacingTop=-1;spacingLeft=3;spacingRight=3;rotatable=0;labelPosition=right;points=[];portConstraint=eastwest;strokeColor=inherit;" vertex="1" parent="DFwUwxRd9LHp8LGhNbKz-51">
          <mxGeometry y="52" width="440" height="8" as="geometry" />
        </mxCell>
        <mxCell id="DFwUwxRd9LHp8LGhNbKz-54" value="&lt;div style=&quot;font-family: Consolas, &amp;quot;Courier New&amp;quot;, monospace; font-size: 11px; line-height: 19px;&quot;&gt;add_note(self, note)&lt;/div&gt;&lt;div style=&quot;font-family: Consolas, &amp;quot;Courier New&amp;quot;, monospace; font-size: 11px; line-height: 19px;&quot;&gt;&lt;div style=&quot;line-height: 19px; font-size: 11px;&quot;&gt;&lt;div style=&quot;line-height: 19px; font-size: 11px;&quot;&gt;&lt;div style=&quot;line-height: 19px; font-size: 11px;&quot;&gt;&lt;div style=&quot;line-height: 19px; font-size: 11px;&quot;&gt;&lt;div style=&quot;line-height: 19px; font-size: 11px;&quot;&gt;&lt;div style=&quot;line-height: 19px; font-size: 11px;&quot;&gt;&lt;div style=&quot;line-height: 19px; font-size: 11px;&quot;&gt;&lt;div style=&quot;line-height: 19px; font-size: 11px;&quot;&gt;load_notes2(self, filename)&lt;/div&gt;&lt;/div&gt;&lt;div style=&quot;line-height: 19px; font-size: 11px;&quot;&gt;save_notes2(self, filename)&lt;/div&gt;&lt;/div&gt;&lt;div style=&quot;line-height: 19px; font-size: 11px;&quot;&gt;load_notes(self, filename)&lt;/div&gt;&lt;/div&gt;&lt;div style=&quot;line-height: 19px; font-size: 11px;&quot;&gt;save_notes(self, filename)&lt;/div&gt;&lt;/div&gt;&lt;div style=&quot;line-height: 19px; font-size: 11px;&quot;&gt;search_notes_by_tag(self, tag)&lt;/div&gt;&lt;/div&gt;&lt;div style=&quot;line-height: 19px; font-size: 11px;&quot;&gt;delete_note(self, index)&lt;/div&gt;&lt;/div&gt;&lt;div style=&quot;line-height: 19px; font-size: 11px;&quot;&gt;edit_note(self, index, note):&lt;/div&gt;&lt;/div&gt;&lt;div style=&quot;line-height: 19px; font-size: 11px;&quot;&gt;search_notes(self, keyword)&lt;/div&gt;&lt;/div&gt;" style="text;strokeColor=none;fillColor=none;align=left;verticalAlign=top;spacingLeft=4;spacingRight=4;overflow=hidden;rotatable=0;points=[[0,0.5],[1,0.5]];portConstraint=eastwest;whiteSpace=wrap;html=1;fontSize=11;labelBackgroundColor=#FFFFFF;fontColor=#000000;" vertex="1" parent="DFwUwxRd9LHp8LGhNbKz-51">
          <mxGeometry y="60" width="440" height="180" as="geometry" />
        </mxCell>
        <mxCell id="DFwUwxRd9LHp8LGhNbKz-55" value="Extends" style="endArrow=block;endSize=16;endFill=0;html=1;rounded=0;" edge="1" parent="WIyWlLk6GJQsqaUBKTNV-1">
          <mxGeometry x="-0.1481" y="-4" width="160" relative="1" as="geometry">
            <mxPoint x="320" y="840" as="sourcePoint" />
            <mxPoint x="220" y="780" as="targetPoint" />
            <Array as="points">
              <mxPoint x="290" y="820" />
            </Array>
            <mxPoint as="offset" />
          </mxGeometry>
        </mxCell>
        <mxCell id="DFwUwxRd9LHp8LGhNbKz-56" value="Menu" style="html=1;whiteSpace=wrap;" vertex="1" parent="WIyWlLk6GJQsqaUBKTNV-1">
          <mxGeometry x="30" y="40" width="120" height="50" as="geometry" />
        </mxCell>
        <mxCell id="DFwUwxRd9LHp8LGhNbKz-61" value="Task_11" style="html=1;whiteSpace=wrap;" vertex="1" parent="WIyWlLk6GJQsqaUBKTNV-1">
          <mxGeometry y="140" width="70" height="50" as="geometry" />
        </mxCell>
        <mxCell id="DFwUwxRd9LHp8LGhNbKz-62" value="pogoda" style="html=1;whiteSpace=wrap;" vertex="1" parent="WIyWlLk6GJQsqaUBKTNV-1">
          <mxGeometry x="180" y="10" width="110" height="50" as="geometry" />
        </mxCell>
        <mxCell id="DFwUwxRd9LHp8LGhNbKz-63" value="dispatch" style="html=1;verticalAlign=bottom;endArrow=block;edgeStyle=elbowEdgeStyle;elbow=vertical;curved=0;rounded=0;entryX=0.445;entryY=0.02;entryDx=0;entryDy=0;entryPerimeter=0;" edge="1" parent="WIyWlLk6GJQsqaUBKTNV-1" target="DFwUwxRd9LHp8LGhNbKz-56">
          <mxGeometry width="80" relative="1" as="geometry">
            <mxPoint x="180" y="10" as="sourcePoint" />
            <mxPoint x="60" y="35" as="targetPoint" />
          </mxGeometry>
        </mxCell>
        <mxCell id="DFwUwxRd9LHp8LGhNbKz-64" value="dispatch" style="html=1;verticalAlign=bottom;endArrow=block;edgeStyle=elbowEdgeStyle;elbow=vertical;curved=0;rounded=0;" edge="1" parent="WIyWlLk6GJQsqaUBKTNV-1">
          <mxGeometry x="-0.2" y="-5" width="80" relative="1" as="geometry">
            <mxPoint x="64.5" y="140" as="sourcePoint" />
            <mxPoint x="64.5" y="90" as="targetPoint" />
            <mxPoint x="1" as="offset" />
          </mxGeometry>
        </mxCell>
        <mxCell id="DFwUwxRd9LHp8LGhNbKz-65" value="dispatch" style="html=1;verticalAlign=bottom;endArrow=block;edgeStyle=elbowEdgeStyle;elbow=vertical;curved=0;rounded=0;exitX=0.22;exitY=-0.006;exitDx=0;exitDy=0;exitPerimeter=0;entryX=1;entryY=1;entryDx=0;entryDy=0;" edge="1" parent="WIyWlLk6GJQsqaUBKTNV-1" source="DFwUwxRd9LHp8LGhNbKz-42" target="DFwUwxRd9LHp8LGhNbKz-56">
          <mxGeometry x="-0.6664" width="80" relative="1" as="geometry">
            <mxPoint x="180" y="300" as="sourcePoint" />
            <mxPoint x="140" y="100" as="targetPoint" />
            <Array as="points">
              <mxPoint x="140" y="194" />
            </Array>
            <mxPoint as="offset" />
          </mxGeometry>
        </mxCell>
        <mxCell id="DFwUwxRd9LHp8LGhNbKz-70" value="dispatch" style="html=1;verticalAlign=bottom;endArrow=block;edgeStyle=elbowEdgeStyle;elbow=vertical;curved=0;rounded=0;entryX=0.667;entryY=1;entryDx=0;entryDy=0;entryPerimeter=0;" edge="1" parent="WIyWlLk6GJQsqaUBKTNV-1" target="DFwUwxRd9LHp8LGhNbKz-56">
          <mxGeometry width="80" relative="1" as="geometry">
            <mxPoint x="20" y="640" as="sourcePoint" />
            <mxPoint x="20" y="200" as="targetPoint" />
            <Array as="points">
              <mxPoint x="30" y="280" />
            </Array>
          </mxGeometry>
        </mxCell>
      </root>
    </mxGraphModel>
  </diagram>
</mxfile>
